<svg xmlns="http://www.w3.org/2000/svg" width="151" height="43" fill="none" viewBox="0 0 151 43"><path fill="#E5F1FF" d="M46.21 19.139c0-.973.782-1.553 2.23-1.553 1.722 0 2.761.904 2.943 2.273h5.675c-.39-3.973-3.272-6.861-8.441-6.861-5.241 0-8.154 2.816-8.154 6.246 0 7.396 10.916 5.052 10.916 8.301 0 .9-.824 1.62-2.407 1.62-1.685 0-2.944-.938-3.087-2.355h-6.06c.286 3.898 3.876 6.895 9.226 6.895 5.026 0 8.113-2.635 8.113-6.137-.11-7.487-10.954-5.214-10.954-8.43ZM70.782 13.004c-5.86 0-10.414 3.973-10.414 10.359S64.82 33.722 70.71 33.722c5.89 0 10.485-3.974 10.485-10.36 0-6.385-4.526-10.358-10.413-10.358Zm-.076 15.376c-2.222 0-4.092-1.624-4.092-5.017 0-3.39 1.953-5.018 4.168-5.018 2.154 0 4.164 1.572 4.164 5.018 0 3.445-2.048 5.017-4.24 5.017ZM91.261 6.725h-6.14v26.711h6.14V6.725ZM99.726 4.523c-2.192 0-3.662 1.482-3.662 3.36 0 1.876 1.47 3.32 3.662 3.32 2.191 0 3.627-1.481 3.627-3.32 0-1.84-1.473-3.36-3.627-3.36ZM102.779 13.295h-6.14v20.137h6.14V13.295ZM117.012 18.27c1.689 0 2.695.905 3.193 2.31h6.537c-1.043-4.798-4.602-7.576-9.624-7.576-5.887 0-10.051 4.007-10.051 10.359s4.164 10.359 10.051 10.359c5.029 0 8.596-2.925 9.624-7.581h-6.537c-.536 1.482-1.504 2.31-3.193 2.31-2.191 0-3.695-1.733-3.695-5.107s1.504-5.074 3.695-5.074ZM144.358 13.295l-4.595 12.594-4.633-12.594h-6.858l8.151 19.455L131.828 43h6.605L151 13.294h-6.642Z"/><g clip-path="url(#clip0_5521_4586)"><path fill="url(#paint0_linear_5521_4586)" d="M15.56.027s-6.957 3.221-.76 9.447c6.196 6.227 14.235 7.358 15.876 14.829 1.64 7.471-2.88 15.96-15.02 16.697 0 0 8.494-3.976-2.37-11.907C4.794 23.498-1.184 19.59.2 11.313 1.585 3.037 11.127-.34 15.56.027Z"/><path fill="url(#paint1_linear_5521_4586)" d="M23.958 2.327c-1.397-.95-3.936-1.65-5.465-1.108-.478.17-.862.529-1.154.971a3.485 3.485 0 0 0-.214 3.42c.124.255.264.483.407.669.36.467.921.941 1.425 1.319 0 0 6.712 4.6 7.252 4.962 1.307.87 3.728 2.742 4.419 3.54 0 0 2.372-7.62-6.67-13.773Z"/><path fill="url(#paint2_linear_5521_4586)" d="M7.414 38.674c1.397.95 3.935 1.649 5.462 1.104.478-.17.86-.53 1.152-.973a3.497 3.497 0 0 0 .21-3.424 3.898 3.898 0 0 0-.407-.668c-.359-.467-.921-.941-1.425-1.319 0 0-6.712-4.597-7.252-4.958-1.307-.868-3.729-2.74-4.42-3.538 0 0-2.362 7.628 6.68 13.776Z"/></g><defs><linearGradient id="paint0_linear_5521_4586" x1="-2.416" x2="30.854" y1="0" y2="38.172" gradientUnits="userSpaceOnUse"><stop stop-color="#fff"/><stop offset="1" stop-color="#BDDCFF"/></linearGradient><linearGradient id="paint1_linear_5521_4586" x1="28.862" x2="20.451" y1="2.672" y2="12.174" gradientUnits="userSpaceOnUse"><stop stop-color="#B3D3FC"/><stop offset="1" stop-color="#B0C8F7"/></linearGradient><linearGradient id="paint2_linear_5521_4586" x1="15.376" x2="1.499" y1="28.441" y2="39.562" gradientUnits="userSpaceOnUse"><stop stop-color="#AFC8F7"/><stop offset="1" stop-color="#B4D5FD"/></linearGradient><clipPath id="clip0_5521_4586"><path fill="#fff" d="M0 0h31v41H0z"/></clipPath></defs></svg>